<svg width="400" height="400" viewBox="0 0 400 400" fill="none" xmlns="http://www.w3.org/2000/svg">
<rect width="400" height="400" fill="#D9D9D9"/>
<path d="M117.901 171L89.5 183.712C93.1247 192.321 100.363 209.571 100.319 209.704C100.275 209.837 103.866 220.957 106 226L125.821 220.566L132.5 212.42V183.103L130.401 176.5L117.901 171Z" fill="#B8B8B8"/>
<path fill-rule="evenodd" clip-rule="evenodd" d="M91.3377 183.632L119.223 171.633L123.188 173.358V168.141C123.188 167.846 123.039 167.168 122.715 166.789C122.347 166.357 121.901 166 121.307 166C120.877 166 120.528 166.162 120.212 166.309C120.156 166.335 120.1 166.361 120.046 166.385L90.5249 179.184C90.0843 179.331 89.0268 179.802 88.3218 180.508C87.6169 181.214 87.1469 182.274 87 182.715V229.627C87 230.896 87.4949 232.447 91.3377 234.389C93.8606 235.664 100.52 236.811 104.407 235.234L135.334 221.883C135.616 221.77 135.954 221.488 136.066 221.376C136.235 221.207 136.348 220.981 136.348 220.869V173.141C136.348 172.803 136.256 172.702 136.001 172.424C135.969 172.389 135.935 172.351 135.897 172.309C135.39 171.746 134.545 171.633 134.151 171.802L103.562 185.041C101.916 185.779 99.1117 185.773 96.6893 185.435C93.8747 185.042 92.0137 184.083 91.3377 183.632ZM114.434 199.068V217.545C114.434 218.39 113.702 220.891 112.801 222.108C111.674 223.629 110.322 224.756 108.745 224.643C107.167 224.53 106.266 223.122 106.097 221.995C105.928 220.869 105.759 218.841 106.717 216.813C107.674 214.785 108.519 214.109 109.026 213.714C109.199 213.58 109.455 213.434 109.749 213.265C110.321 212.937 111.037 212.527 111.561 211.968C112.406 211.067 112.801 209.884 112.801 209.095V193.265C112.801 192.871 112.822 191.97 113.082 191.294C113.308 190.708 113.871 189.773 114.378 189.547L129.306 183.182C129.588 183.069 130.039 183.227 130.264 183.407C130.489 183.587 130.658 183.998 130.658 184.224V210.278C130.677 211.198 130.39 213.391 129.419 215.01C128.236 216.982 126.659 218.334 124.856 217.939C123.053 217.545 122.377 215.517 122.603 213.207C122.79 211.292 123.452 209.996 123.729 209.546C123.744 209.522 123.758 209.498 123.774 209.474C124.159 208.846 124.784 207.828 125.814 207.123C126.249 206.826 126.544 206.668 126.791 206.536C127.151 206.343 127.407 206.206 127.842 205.771C128.574 205.039 129.025 203.969 129.025 202.955V192.984L114.434 199.068Z" fill="#8C8C8C"/>
<path d="M212.435 223.25V214.67H189.36V203.815H205.935V195.365H172.785V173.265H162.775V203.815H179.35V214.67H154.975V223.25H212.435ZM254.299 224.875V199.135H258.329V228.32C258.329 230.01 259.109 230.4 260.864 229.815L267.689 227.475V169.755H258.329V190.035H254.299V170.73H244.939V225.72C244.939 227.41 245.719 227.8 247.474 227.215L254.299 224.875ZM242.664 216.62V208.3H226.934V198.55H241.169V173.98H217.444V182.3H231.679V190.62H217.444V216.62H242.664ZM314.428 203.165V191.66H318.003V204.01C318.003 205.7 318.783 206.09 320.538 205.505L327.363 203.165V169.755H318.003V182.56H314.428V170.405H305.068V204.01C305.068 205.7 305.848 206.09 307.603 205.505L314.428 203.165ZM302.793 183.015V174.565H294.538V169.365H284.528V174.565H275.818V183.015H284.593V187.89L273.478 198.81L280.433 204.66L289.533 195.625L297.918 204.01L304.873 198.16L294.473 187.89V183.015H302.793ZM327.363 227.28V207.325H284.853V215.775H317.483V228.32C317.483 230.01 318.263 230.465 320.083 229.815L327.363 227.28Z" fill="#8C8C8C"/>
</svg>
