<svg width="248" height="72" viewBox="0 0 248 72" fill="none" xmlns="http://www.w3.org/2000/svg">
<path d="M58.435 59.25V50.67H35.36V39.815H51.935V31.365H18.785V9.265H8.775V39.815H25.35V50.67H0.975V59.25H58.435ZM100.299 60.875V35.135H104.329V64.32C104.329 66.01 105.109 66.4 106.864 65.815L113.689 63.475V5.755H104.329V26.035H100.299V6.73H90.9391V61.72C90.9391 63.41 91.7191 63.8 93.4741 63.215L100.299 60.875ZM88.6641 52.62V44.3H72.9341V34.55H87.1691V9.98H63.4441V18.3H77.6791V26.62H63.4441V52.62H88.6641ZM160.428 39.165V27.66H164.003V40.01C164.003 41.7 164.783 42.09 166.538 41.505L173.363 39.165V5.755H164.003V18.56H160.428V6.405H151.068V40.01C151.068 41.7 151.848 42.09 153.603 41.505L160.428 39.165ZM148.793 19.015V10.565H140.538V5.365H130.528V10.565H121.818V19.015H130.593V23.89L119.478 34.81L126.433 40.66L135.533 31.625L143.918 40.01L150.873 34.16L140.473 23.89V19.015H148.793ZM173.363 63.28V43.325H130.853V51.775H163.483V64.32C163.483 66.01 164.263 66.465 166.083 65.815L173.363 63.28Z" fill="#81E6D9"/>
<path d="M196.84 54.208C196.84 51.952 195.616 50.584 193.792 49.84C195.4 49.096 196.264 47.56 196.264 45.616C196.264 42.232 193.624 40.864 190.408 40.864H182.92V59.44H190.768C193.984 59.44 196.84 57.88 196.84 54.208ZM192.568 46.144C192.568 47.8 190.912 48.304 189.208 48.304H186.568V43.984H189.448C191.128 43.984 192.568 44.488 192.568 46.144ZM193.144 53.872C193.144 55.768 191.512 56.32 189.592 56.32H186.568V51.424H189.352C191.248 51.424 193.144 51.976 193.144 53.872ZM211.965 59.44V56.32H203.373V51.472H211.485V48.352H203.373V43.984H211.725V40.864H199.725V59.44H211.965ZM228.516 43.984V40.864H213.636V43.984H219.252V59.272C219.252 59.896 219.54 60.064 220.212 59.824L222.9 58.888V43.984H228.516ZM247 59.44L240.064 40.864H236.176L229.24 59.44H232.984L234.544 55.072H241.672L243.256 59.44H247ZM238.12 45.184L240.544 51.952H235.672L238.12 45.184Z" fill="#81E6D9"/>
</svg>
