<svg width="50" height="70" viewBox="0 0 50 70" fill="none" xmlns="http://www.w3.org/2000/svg">
<path d="M30.9012 5L2.5 17.7123C6.12473 26.3208 13.3632 43.5711 13.319 43.7041C13.2748 43.8372 16.8656 54.9568 19 60L38.8209 54.5664L45.5 46.4197V17.1027L43.4012 10.5L30.9012 5Z" fill="#2D3748"/>
<path fill-rule="evenodd" clip-rule="evenodd" d="M4.33767 17.6323L32.2227 5.63334L36.1882 7.3577V2.14067C36.1882 1.84643 36.039 1.1684 35.7154 0.788667C35.3472 0.356631 34.9013 0 34.307 0C33.8771 0 33.5282 0.162042 33.2124 0.308679C33.1558 0.334961 33.1003 0.360748 33.0456 0.385018L3.52486 13.1842C3.08425 13.3313 2.02679 13.8021 1.32182 14.5083C0.616851 15.2144 0.146869 16.2737 0 16.715V63.627C0 64.896 0.494929 66.4469 4.33767 68.3887C6.8606 69.6636 13.52 70.8111 17.407 69.2337L48.334 55.8827C48.6157 55.77 48.9537 55.4884 49.0664 55.3757C49.2354 55.2067 49.348 54.9814 49.348 54.8687V7.14074C49.348 6.8026 49.2558 6.7018 49.0014 6.4237C48.9693 6.38867 48.9347 6.35082 48.8974 6.30934C48.3904 5.746 47.5454 5.63334 47.151 5.80234L16.562 19.0407C14.9163 19.7792 12.1117 19.773 9.68934 19.435C6.8747 19.0423 5.01367 18.083 4.33767 17.6323ZM27.4343 33.0676V51.5449C27.4343 52.3899 26.702 54.8911 25.8007 56.1079C24.674 57.6289 23.322 58.7556 21.7447 58.6429C20.1673 58.5303 19.266 57.1219 19.097 55.9953C18.928 54.8686 18.759 52.8406 19.7167 50.8126C20.6743 48.7846 21.5193 48.1086 22.0263 47.7143C22.1986 47.5803 22.4548 47.4335 22.7492 47.2649C23.321 46.9373 24.0369 46.5273 24.5613 45.9679C25.4063 45.0666 25.8007 43.8836 25.8007 43.0949V27.2652C25.8007 26.8709 25.8223 25.9696 26.0823 25.2936C26.3077 24.7077 26.871 23.7726 27.378 23.5472L42.3063 17.1816C42.588 17.0689 43.0387 17.2266 43.264 17.4069C43.4893 17.5872 43.6583 17.9982 43.6583 18.2236V44.2779C43.6771 45.198 43.3901 47.3915 42.419 49.0099C41.236 50.9816 39.6587 52.3336 37.856 51.9393C36.0533 51.5449 35.3773 49.5169 35.6027 47.2073C35.7895 45.2919 36.452 43.9963 36.7293 43.5456C36.7437 43.5222 36.7585 43.4982 36.7736 43.4736C37.159 42.8456 37.7837 41.828 38.8137 41.1233C39.2487 40.8256 39.5442 40.6675 39.7908 40.5356C40.151 40.3429 40.407 40.2059 40.8417 39.7713C41.574 39.0389 42.0247 37.9686 42.0247 36.9546V26.9836L27.4343 33.0676Z" fill="#81E6D9"/>
</svg>
