<?xml version="1.0" standalone="no"?>
<!DOCTYPE svg PUBLIC "-//W3C//DTD SVG 20010904//EN"
 "http://www.w3.org/TR/2001/REC-SVG-20010904/DTD/svg10.dtd">
<svg version="1.0" xmlns="http://www.w3.org/2000/svg"
 width="1120.000000pt" height="1120.000000pt" viewBox="0 0 1120.000000 1120.000000"
 preserveAspectRatio="xMidYMid meet">
<metadata>
Created by potrace 1.14, written by Peter Selinger 2001-2017
</metadata>
<g transform="translate(0.000000,1120.000000) scale(0.100000,-0.100000)"
fill="#000000" stroke="none">
<path d="M7020 11193 c-18 -7 -653 -281 -1235 -533 -231 -100 -622 -270 -870
-377 -247 -107 -634 -275 -860 -373 -225 -98 -615 -267 -865 -375 -250 -109
-603 -262 -785 -340 -380 -164 -418 -182 -500 -240 -112 -79 -188 -176 -261
-329 l-44 -93 0 -3789 c0 -4137 -4 -3848 56 -3967 83 -162 255 -310 550 -471
185 -101 383 -170 649 -224 523 -108 1037 -108 1410 0 65 19 305 120 1290 546
204 88 633 273 955 412 322 139 752 324 955 412 204 88 483 209 620 268 138
59 435 187 660 285 226 97 457 197 515 222 121 52 189 99 219 153 l21 38 0
3826 c0 3261 -2 3832 -14 3860 -39 94 -163 176 -266 176 -50 0 -95 -17 -415
-156 -721 -312 -1365 -591 -2910 -1259 -429 -186 -971 -421 -1205 -522 -234
-102 -461 -198 -505 -214 -245 -87 -696 -96 -1130 -23 -126 21 -261 56 -397
103 -167 58 -374 160 -352 174 9 5 517 224 2244 967 437 188 1112 479 1500
646 l706 303 139 -60 c370 -162 481 -209 487 -209 5 0 8 195 8 434 0 405 -1
438 -20 497 -42 135 -167 239 -285 238 -27 0 -57 -3 -65 -6z m1432 -2743 c45
-13 93 -51 116 -94 16 -29 17 -170 17 -2201 l0 -2170 -22 -120 c-27 -149 -83
-325 -135 -430 -92 -183 -243 -367 -373 -454 -95 -63 -171 -92 -266 -98 -237
-17 -408 126 -475 397 -28 112 -26 366 4 516 47 235 135 429 279 616 98 128
182 197 363 298 132 74 232 175 288 290 76 154 72 107 70 1042 l-3 836 -1065
-444 c-586 -244 -1109 -462 -1162 -485 l-98 -41 0 -1495 c0 -1689 6 -1557 -81
-1809 -96 -281 -223 -477 -406 -626 -145 -119 -260 -162 -413 -156 -84 3 -105
8 -162 36 -122 60 -226 195 -263 338 -25 100 -37 299 -25 421 19 207 54 331
140 504 129 258 252 394 479 529 79 47 172 109 208 138 104 86 184 207 234
357 l24 70 5 1410 c5 1319 7 1414 24 1470 29 97 95 215 156 276 l55 56 590
251 c325 138 869 371 1210 516 341 146 627 265 635 266 8 0 32 -5 52 -10z"/>
</g>
</svg>
